<svg width="1153" height="210" viewBox="0 0 1153 210" fill="none" xmlns="http://www.w3.org/2000/svg">
<path d="M378.397 160.595C370.712 157.729 364.543 153.608 359.891 148.208C355.239 142.808 352.617 136.231 352.077 128.451L379.425 125.175C379.965 128.86 381.378 132.059 383.64 134.798C385.902 137.536 388.961 139.711 392.79 141.349C396.62 142.987 401.015 143.806 405.95 143.806C409.934 143.806 413.533 143.269 416.745 142.168C419.958 141.068 422.529 139.609 424.456 137.766C426.384 135.924 427.335 133.851 427.335 131.522C427.463 128.656 425.819 126.224 422.4 124.254C418.982 122.283 413.558 120.748 406.156 119.647L389.912 116.985C378.397 115.066 369.966 111.765 364.62 107.056C359.274 102.347 356.678 95.6158 356.806 86.8887C356.806 80.0556 358.734 74.0669 362.564 68.8717C366.394 63.6764 371.714 59.684 378.5 56.8944C385.285 54.1048 393.073 52.6973 401.838 52.6973C410.602 52.6973 417.774 54.0025 424.559 56.5873C431.345 59.1721 436.871 62.8319 441.112 67.5409C445.353 72.2499 447.897 77.5987 448.72 83.6129L422.194 87.7077C421.912 83.4849 419.804 80.0044 415.82 77.266C411.836 74.5276 406.901 73.1712 401.015 73.1712C397.725 73.1712 394.77 73.7086 392.174 74.8091C389.578 75.9096 387.521 77.266 386.005 78.9039C384.488 80.5418 383.666 82.3845 383.537 84.4319C383.537 86.8887 384.9 88.9361 387.65 90.574C390.4 92.212 394.924 93.6451 401.221 94.8736L417.259 97.3304C430.702 99.7873 440.392 103.575 446.355 108.693C452.318 113.812 455.3 120.594 455.3 129.065C455.3 136.154 453.166 142.45 448.925 147.901C444.684 153.352 438.67 157.549 430.933 160.493C423.197 163.436 414.304 164.894 404.305 164.894C394.307 164.894 386.082 163.461 378.397 160.595Z" fill="white"/>
<path d="M513.285 158.956C507.245 155.271 502.182 149.871 498.069 142.782H497.864L493.34 161.209H467.431V9.29199H498.275V74.6038H498.48C502.31 67.6427 507.348 62.3195 513.594 58.6342C519.839 54.9489 526.779 53.1062 534.464 53.1062C543.64 53.1062 551.814 55.4607 558.933 60.1697C566.053 64.8787 571.656 71.4048 575.692 79.7223C579.727 88.0399 581.757 97.7394 581.757 108.795C581.757 119.851 579.727 129.372 575.692 137.766C571.656 146.16 566.053 152.712 558.933 157.421C551.814 162.13 543.589 164.484 534.259 164.484C526.317 164.484 519.325 162.642 513.285 158.956ZM537.96 134.49C542.072 131.828 545.26 128.271 547.521 123.844C549.783 119.416 550.914 114.4 550.914 108.795C550.914 103.191 549.783 98.2256 547.521 93.8493C545.26 89.473 542.072 85.9669 537.96 83.3053C533.847 80.6436 529.247 79.3128 524.183 79.3128C519.12 79.3128 514.493 80.6436 510.304 83.3053C506.114 85.9669 502.876 89.473 500.537 93.8493C498.198 98.2256 497.041 103.191 497.041 108.795C497.041 114.4 498.198 119.416 500.537 123.844C502.876 128.271 506.114 131.828 510.304 134.49C514.493 137.152 519.12 138.483 524.183 138.483C529.247 138.483 533.847 137.152 537.96 134.49Z" fill="white"/>
<path d="M619.284 158.24C610.57 153.531 603.759 146.953 598.824 138.482C593.889 130.011 591.422 120.133 591.422 108.795C591.422 97.4577 593.889 87.5279 598.824 79.0056C603.759 70.4833 610.57 63.8805 619.284 59.2482C627.997 54.616 638.227 52.2871 650.024 52.2871C661.822 52.2871 671.743 54.616 680.662 59.2482C689.581 63.8805 696.392 70.4833 701.121 79.0056C705.851 87.5279 708.215 97.4577 708.215 108.795C708.215 120.133 705.851 130.011 701.121 138.482C696.392 146.953 689.581 153.531 680.662 158.24C671.743 162.949 661.539 165.303 650.024 165.303C638.509 165.303 627.997 162.949 619.284 158.24ZM664.726 135.923C668.89 133.389 672.129 129.807 674.391 125.174C676.652 120.542 677.783 115.065 677.783 108.795C677.783 102.525 676.652 97.0994 674.391 92.5184C672.129 87.9374 668.916 84.4056 664.726 81.8719C660.537 79.3383 655.627 78.0843 650.024 78.0843C644.421 78.0843 639.46 79.3383 635.219 81.8719C630.978 84.4056 627.689 87.9374 625.35 92.5184C623.011 97.0994 621.854 102.525 621.854 108.795C621.854 115.065 623.011 120.542 625.35 125.174C627.689 129.807 630.978 133.389 635.219 135.923C639.46 138.457 644.395 139.711 650.024 139.711C655.653 139.711 660.537 138.457 664.726 135.923Z" fill="white"/>
<path d="M721.375 56.3823H746.255L751.19 74.1946H751.396C754.275 67.7709 758.876 62.6524 765.173 58.8391C771.47 55.0259 778.667 53.1064 786.763 53.1064C794.859 53.1064 801.645 54.9747 807.12 58.7368C812.594 62.4989 816.45 67.9245 818.635 75.0136H818.84C823.235 67.7709 828.684 62.3197 835.187 58.6344C841.69 54.9491 848.938 53.1064 856.88 53.1064C863.872 53.1064 869.86 54.642 874.872 57.7131C879.884 60.7842 883.688 65.1605 886.284 70.8164C888.88 76.4723 890.191 83.2799 890.191 91.188L890.397 161.209H859.348V97.3301C859.348 91.5974 857.883 87.17 854.927 84.0221C851.971 80.8742 847.704 79.3131 842.075 79.3131C837.963 79.3131 834.339 80.3624 831.178 82.4865C828.016 84.6107 825.626 87.4771 823.981 91.0856C822.336 94.6941 821.513 98.9681 821.513 103.882L821.308 161.209H790.464V97.3301C790.464 91.5974 788.948 87.17 785.941 84.0221C782.933 80.8742 778.667 79.3131 773.192 79.3131C766.741 79.3131 761.651 81.5652 757.873 86.0695C754.095 90.5737 752.218 96.5112 752.218 103.882V161.209H721.375V56.3823Z" fill="white"/>
<path d="M909.802 36.8299C906.307 33.4773 904.559 29.1521 904.559 23.8289C904.559 20.2716 905.356 17.1749 906.924 14.5133C908.492 11.8517 910.651 9.77869 913.401 8.26873C916.151 6.75878 919.364 6.0166 923.065 6.0166C928.694 6.0166 933.166 7.62892 936.533 10.828C939.9 14.027 941.571 18.3777 941.571 23.8289C941.571 27.5142 940.774 30.6877 939.206 33.3493C937.639 36.0109 935.454 38.0839 932.729 39.5939C929.979 41.1038 926.766 41.846 923.065 41.846C917.719 41.846 913.298 40.1825 909.802 36.8299ZM907.438 56.3825H938.487V161.209H907.438V56.3825Z" fill="white"/>
<path d="M968.919 79.7224H948.974V56.3821H968.919V44.0977C968.919 36.4456 970.641 29.638 974.059 23.6238C977.478 17.6096 982.259 13.0541 988.35 9.90627C994.442 6.7584 1001.54 5.19727 1009.63 5.19727C1017.73 5.19727 1025.23 7.01433 1031.74 10.6229C1038.24 14.2314 1043.35 18.9916 1047.06 24.8522L1035.33 43.074C1033.28 39.2608 1030.48 36.1385 1026.9 33.7584C1023.33 31.3783 1019.5 30.1755 1015.39 30.1755C1010.74 30.1755 1006.96 31.711 1004.08 34.7821C1001.2 37.8532 999.762 41.9224 999.762 46.9641V56.3821H1038.62V79.7224H999.762L999.968 161.209H969.125L968.919 79.7224Z" fill="white"/>
<path d="M1070.11 205.843C1063.38 204.205 1057.34 201.876 1051.91 198.881C1046.49 195.887 1042.15 192.253 1038.86 188.03L1051.81 166.328C1054.69 169.732 1058.06 172.675 1061.89 175.132C1065.72 177.589 1069.98 179.431 1074.63 180.66C1079.29 181.888 1084.02 182.502 1088.82 182.502C1095.69 182.502 1101.57 181.376 1106.51 179.124C1111.44 176.872 1115.25 173.57 1117.92 169.194C1120.59 164.818 1121.93 159.699 1121.93 153.839V146.059H1121.72C1118.3 152.201 1113.63 157.038 1107.74 160.595C1101.85 164.152 1095.48 165.918 1088.62 165.918C1080.8 165.918 1073.91 164.204 1067.95 160.8C1061.99 157.396 1057.39 152.508 1054.18 146.161C1050.96 139.814 1049.34 132.469 1049.34 124.152V56.3828H1080.39V119.238C1080.39 123.333 1081.14 127.043 1082.65 130.396C1084.17 133.749 1086.38 136.308 1089.34 138.074C1092.29 139.84 1095.69 140.735 1099.51 140.735C1103.34 140.735 1107.2 139.712 1110.62 137.664C1114.04 135.617 1116.74 132.93 1118.74 129.577C1120.72 126.225 1121.72 122.232 1121.72 117.6V56.3828H1152.77V154.658C1152.77 165.714 1150.23 175.208 1145.16 183.116C1140.1 191.025 1132.95 197.218 1123.78 201.645C1114.6 206.073 1103.76 208.299 1091.29 208.299C1083.89 208.299 1076.82 207.48 1070.11 205.843Z" fill="white"/>
<path d="M10.1526 0.00190769C-3.00723 -0.177239 -3.03293 20.4247 10.1526 20.2455H79.6273C92.8385 20.4758 92.8643 -0.228424 79.6273 0.00190769H10.1526ZM112.63 0.00190769C99.5213 -0.177239 99.4442 20.4247 112.63 20.2455H277.719C283.322 20.2455 287.846 15.7157 287.846 10.1621C287.846 4.55736 283.322 0.0275001 277.719 0.0275001H112.63V0.00190769ZM10.1526 35.0123C-2.98153 34.8332 -3.05863 55.4607 10.1526 55.2559H124.093C129.696 55.2559 134.22 50.7261 134.22 45.1469C134.246 39.5678 129.696 35.0123 124.093 35.0123H10.1526ZM10.1526 70.0739C-2.95582 69.8948 -3.05863 90.4455 10.1526 90.2664H176.141C181.745 90.2664 186.268 85.7365 186.268 80.1829C186.268 74.6038 181.719 70.0995 176.141 70.0995H10.1526V70.0739ZM277.719 198.138C290.879 198.318 290.904 177.716 277.719 177.895H208.244C195.033 177.664 195.007 198.369 208.244 198.138H277.719ZM175.216 198.138C188.324 198.318 188.402 177.716 175.216 177.895H10.1269C4.5494 177.92 0 182.425 0 188.004C0 193.609 4.52369 198.138 10.1269 198.138H175.216ZM277.719 163.128C290.853 163.307 290.93 142.68 277.719 142.884H163.778C158.175 142.884 153.651 147.414 153.651 152.993C153.626 158.573 158.175 163.128 163.778 163.128H277.719ZM277.719 128.066C290.827 128.245 290.93 107.695 277.719 107.874H111.73C106.127 107.874 101.603 112.404 101.603 117.957C101.603 123.536 106.153 128.041 111.73 128.041H277.719V128.066Z" fill="url(#paint0_linear_1987_92)"/>
<path d="M972.106 177.837H978.618L992.909 202.093H992.997V177.837H998.11V208.78H991.598L977.307 184.524H977.219V208.78H972.106V177.837Z" fill="white"/>
<path d="M941.562 209.873C938.212 209.873 935.254 209.189 932.69 207.819C930.155 206.45 928.189 204.512 926.79 202.006C925.421 199.501 924.736 196.602 924.736 193.309C924.736 190.017 925.421 187.118 926.79 184.612C928.189 182.106 930.155 180.169 932.69 178.799C935.254 177.43 938.212 176.745 941.562 176.745C944.942 176.745 947.899 177.43 950.434 178.799C952.998 180.169 954.965 182.106 956.334 184.612C957.733 187.118 958.432 190.017 958.432 193.309C958.432 196.602 957.733 199.501 956.334 202.006C954.965 204.512 952.998 206.45 950.434 207.819C947.899 209.189 944.942 209.873 941.562 209.873ZM941.562 205.328C943.893 205.328 945.933 204.833 947.681 203.842C949.458 202.851 950.813 201.453 951.745 199.646C952.707 197.811 953.188 195.698 953.188 193.309C953.188 190.92 952.707 188.822 951.745 187.016C950.813 185.18 949.458 183.782 947.681 182.82C945.933 181.829 943.893 181.334 941.562 181.334C939.26 181.334 937.221 181.829 935.444 182.82C933.695 183.782 932.341 185.18 931.379 187.016C930.447 188.822 929.981 190.92 929.981 193.309C929.981 195.698 930.447 197.811 931.379 199.646C932.341 201.453 933.695 202.851 935.444 203.842C937.221 204.833 939.26 205.328 941.562 205.328Z" fill="white"/>
<path d="M905.842 177.837H911.087V208.78H905.842V177.837Z" fill="white"/>
<path d="M878.015 182.426H868.094V177.837H893.137V182.426H883.26V208.78H878.015V182.426Z" fill="white"/>
<path d="M843.569 209.873C840.218 209.873 837.29 209.203 834.784 207.863C832.278 206.493 830.355 204.57 829.015 202.094C827.675 199.588 827.005 196.66 827.005 193.309C827.005 189.959 827.631 187.045 828.884 184.568C830.166 182.063 831.987 180.14 834.347 178.799C836.707 177.43 839.475 176.745 842.651 176.745C844.982 176.745 847.109 177.197 849.032 178.1C850.955 178.974 852.557 180.241 853.839 181.902C855.121 183.534 855.996 185.457 856.462 187.671L851.523 188.851C851.261 187.307 850.722 185.967 849.906 184.83C849.09 183.694 848.056 182.835 846.803 182.252C845.579 181.64 844.195 181.334 842.651 181.334C840.553 181.334 838.718 181.815 837.144 182.776C835.571 183.738 834.362 185.122 833.517 186.928C832.672 188.735 832.249 190.862 832.249 193.309C832.249 195.757 832.716 197.884 833.648 199.69C834.58 201.497 835.891 202.895 837.581 203.886C839.3 204.847 841.296 205.328 843.569 205.328C845.404 205.328 847.065 204.949 848.551 204.192C850.066 203.405 851.305 202.327 852.266 200.958C853.257 199.559 853.883 197.927 854.145 196.063L859.128 197.112C858.749 199.676 857.86 201.919 856.462 203.842C855.063 205.765 853.257 207.251 851.042 208.3C848.828 209.349 846.337 209.873 843.569 209.873Z" fill="white"/>
<path d="M799.713 177.837H806.006L817.675 208.78H812.125L809.678 201.918H796.085L793.55 208.78H788L799.713 177.837ZM808.366 197.679L802.903 182.601H802.816L797.353 197.679H808.366Z" fill="white"/>
<defs>
<linearGradient id="paint0_linear_1987_92" x1="0" y1="99.0701" x2="294.46" y2="126.11" gradientUnits="userSpaceOnUse">
<stop offset="0.06" stop-color="#4059D0"/>
<stop offset="0.555" stop-color="#CC58BB"/>
<stop offset="1" stop-color="#F4B57F"/>
</linearGradient>
</defs>
</svg>
